<svg xmlns="http://www.w3.org/2000/svg" version="1.1" xmlns:xlink="http://www.w3.org/1999/xlink" xmlns:svgjs="http://svgjs.com/svgjs" width="1440" height="560" preserveAspectRatio="none" viewBox="0 0 1440 560"><g mask="url(&quot;#SvgjsMask1046&quot;)" fill="none"><rect width="1440" height="560" x="0" y="0" fill="#1e3266"></rect><path d="M1512 560L0 560 L0 136.72Q76.09 92.81, 120 168.89Q173.45 150.34, 192 203.79Q245.68 137.47, 312 191.15Q387.88 147.03, 432 222.91Q511.85 182.76, 552 262.61Q582.43 221.05, 624 251.48Q648.64 204.12, 696 228.76Q722.3 135.06, 816 161.35Q897.9 123.25, 936 205.15Q958.51 155.67, 1008 178.18Q1091.19 141.38, 1128 224.57Q1155.69 180.26, 1200 207.95Q1284.33 172.28, 1320 256.6Q1322.88 187.49, 1392 190.37Q1425.91 104.29, 1512 138.2z" fill="#182f5d"></path><path d="M1488 560L0 560 L0 310.41Q83.56 273.97, 120 357.53Q138.64 304.17, 192 322.82Q201.41 260.23, 264 269.64Q305.58 239.22, 336 280.79Q390.77 263.56, 408 318.34Q467.82 306.16, 480 365.99Q484.34 298.33, 552 302.66Q606.62 237.28, 672 291.9Q677.44 225.33, 744 230.77Q811.87 178.64, 864 246.51Q956.7 219.21, 984 311.91Q1011.93 267.84, 1056 295.77Q1059.32 227.08, 1128 230.4Q1235.25 265.65, 1200 372.9Q1177 277.9, 1272 254.9Q1298.48 209.38, 1344 235.86Q1402.94 222.81, 1416 281.75Q1478.82 272.57, 1488 335.39z" fill="#25467d"></path><path d="M1464 560L0 560 L0 413.36Q98.86 392.22, 120 491.07Q162.73 413.8, 240 456.53Q243.69 388.22, 312 391.91Q349.46 309.37, 432 346.83Q524.4 319.24, 552 411.64Q612.72 400.36, 624 461.08Q629.71 394.79, 696 400.5Q725.75 358.25, 768 388Q853.59 353.59, 888 439.17Q907 386.18, 960 405.18Q973.76 346.94, 1032 360.7Q1098.65 307.35, 1152 374Q1258.13 360.13, 1272 466.26Q1280.76 355.01, 1392 363.77Q1419.4 319.17, 1464 346.58z" fill="rgba(15, 99, 205, 1)"></path><path d="M1464 560L0 560 L0 598.87Q30.81 557.68, 72 588.49Q57.72 502.21, 144 487.93Q185.97 409.9, 264 451.88Q355.18 423.06, 384 514.24Q430.69 488.93, 456 535.62Q474.17 433.79, 576 451.96Q647.25 403.21, 696 474.46Q787.04 445.5, 816 536.54Q871.64 520.18, 888 575.82Q934.63 502.46, 1008 549.09Q1046.3 467.38, 1128 505.68Q1178.39 484.08, 1200 534.47Q1210.91 473.38, 1272 484.29Q1293.51 433.8, 1344 455.31Q1433.84 425.15, 1464 514.99z" fill="white"></path></g><defs><mask id="SvgjsMask1046"><rect width="1440" height="560" fill="#ffffff"></rect></mask></defs></svg>