<svg xmlns="http://www.w3.org/2000/svg" version="1.1" xmlns:xlink="http://www.w3.org/1999/xlink" xmlns:svgjs="http://svgjs.com/svgjs" width="1440" height="560" preserveAspectRatio="none" viewBox="0 0 1440 560"><g mask="url(&quot;#SvgjsMask1068&quot;)" fill="none"><rect width="1440" height="560" x="0" y="0" fill="#0e2a47"></rect><path d="M-51.9 370.28L-51.9 370.28" stroke="#132e65" stroke-width="1.5"></path><path d="M-51.9 370.28L95.12 343.89" stroke="#132e65" stroke-width="1.5"></path><path d="M-51.9 370.28L-49.48 546.34" stroke="#132e65" stroke-width="1.5"></path><path d="M-51.9 370.28L107.89 551.92" stroke="#132e65" stroke-width="1.5"></path><path d="M-51.9 370.28L223.37 357.9" stroke="#132e65" stroke-width="1.5"></path><path d="M-51.9 370.28L-79.44 661.11" stroke="#132e65" stroke-width="1.5"></path><path d="M-49.48 546.34L-49.48 546.34" stroke="#132e65" stroke-width="1.5"></path><path d="M-49.48 546.34L-79.44 661.11" stroke="#132e65" stroke-width="1.5"></path><path d="M-49.48 546.34L63.69 652.74" stroke="#132e65" stroke-width="1.5"></path><path d="M-49.48 546.34L107.89 551.92" stroke="#132e65" stroke-width="1.5"></path><path d="M-79.44 661.11L-79.44 661.11" stroke="#132e65" stroke-width="1.5"></path><path d="M-79.44 661.11L63.69 652.74" stroke="#132e65" stroke-width="1.5"></path><path d="M-79.44 661.11L107.89 551.92" stroke="#132e65" stroke-width="1.5"></path><path d="M95.12 343.89L95.12 343.89" stroke="#132e65" stroke-width="1.5"></path><path d="M95.12 343.89L223.37 357.9" stroke="#132e65" stroke-width="1.5"></path><path d="M95.12 343.89L107.89 551.92" stroke="#132e65" stroke-width="1.5"></path><path d="M95.12 343.89L241.81 538.59" stroke="#132e65" stroke-width="1.5"></path><path d="M95.12 343.89L-49.48 546.34" stroke="#132e65" stroke-width="1.5"></path><path d="M95.12 343.89L347.09 410.33" stroke="#132e65" stroke-width="1.5"></path><path d="M107.89 551.92L107.89 551.92" stroke="#132e65" stroke-width="1.5"></path><path d="M107.89 551.92L63.69 652.74" stroke="#132e65" stroke-width="1.5"></path><path d="M107.89 551.92L241.81 538.59" stroke="#132e65" stroke-width="1.5"></path><path d="M107.89 551.92L223.37 357.9" stroke="#132e65" stroke-width="1.5"></path><path d="M63.69 652.74L63.69 652.74" stroke="#132e65" stroke-width="1.5"></path><path d="M63.69 652.74L241.81 538.59" stroke="#132e65" stroke-width="1.5"></path><path d="M63.69 652.74L-51.9 370.28" stroke="#132e65" stroke-width="1.5"></path><path d="M223.37 357.9L223.37 357.9" stroke="#132e65" stroke-width="1.5"></path><path d="M223.37 357.9L347.09 410.33" stroke="#132e65" stroke-width="1.5"></path><path d="M223.37 357.9L241.81 538.59" stroke="#132e65" stroke-width="1.5"></path><path d="M223.37 357.9L396.02 531.49" stroke="#132e65" stroke-width="1.5"></path><path d="M223.37 357.9L487.87 388.29" stroke="#132e65" stroke-width="1.5"></path><path d="M241.81 538.59L241.81 538.59" stroke="#132e65" stroke-width="1.5"></path><path d="M241.81 538.59L396.02 531.49" stroke="#132e65" stroke-width="1.5"></path><path d="M241.81 538.59L347.09 410.33" stroke="#132e65" stroke-width="1.5"></path><path d="M241.81 538.59L365.32 699.61" stroke="#132e65" stroke-width="1.5"></path><path d="M347.09 410.33L347.09 410.33" stroke="#132e65" stroke-width="1.5"></path><path d="M347.09 410.33L396.02 531.49" stroke="#132e65" stroke-width="1.5"></path><path d="M347.09 410.33L487.87 388.29" stroke="#132e65" stroke-width="1.5"></path><path d="M347.09 410.33L551.81 499.63" stroke="#132e65" stroke-width="1.5"></path><path d="M396.02 531.49L396.02 531.49" stroke="#132e65" stroke-width="1.5"></path><path d="M396.02 531.49L551.81 499.63" stroke="#132e65" stroke-width="1.5"></path><path d="M396.02 531.49L487.87 388.29" stroke="#132e65" stroke-width="1.5"></path><path d="M396.02 531.49L365.32 699.61" stroke="#132e65" stroke-width="1.5"></path><path d="M365.32 699.61L365.32 699.61" stroke="#132e65" stroke-width="1.5"></path><path d="M365.32 699.61L553.88 674.93" stroke="#132e65" stroke-width="1.5"></path><path d="M365.32 699.61L551.81 499.63" stroke="#132e65" stroke-width="1.5"></path><path d="M365.32 699.61L644.53 650.43" stroke="#132e65" stroke-width="1.5"></path><path d="M365.32 699.61L347.09 410.33" stroke="#132e65" stroke-width="1.5"></path><path d="M487.87 388.29L487.87 388.29" stroke="#132e65" stroke-width="1.5"></path><path d="M487.87 388.29L551.81 499.63" stroke="#132e65" stroke-width="1.5"></path><path d="M487.87 388.29L688.57 359.44" stroke="#132e65" stroke-width="1.5"></path><path d="M487.87 388.29L670.98 225.04" stroke="#132e65" stroke-width="1.5"></path><path d="M551.81 499.63L551.81 499.63" stroke="#132e65" stroke-width="1.5"></path><path d="M551.81 499.63L553.88 674.93" stroke="#132e65" stroke-width="1.5"></path><path d="M551.81 499.63L644.53 650.43" stroke="#132e65" stroke-width="1.5"></path><path d="M551.81 499.63L688.57 359.44" stroke="#132e65" stroke-width="1.5"></path><path d="M553.88 674.93L553.88 674.93" stroke="#132e65" stroke-width="1.5"></path><path d="M553.88 674.93L644.53 650.43" stroke="#132e65" stroke-width="1.5"></path><path d="M670.98 225.04L670.98 225.04" stroke="#132e65" stroke-width="1.5"></path><path d="M670.98 225.04L688.57 359.44" stroke="#132e65" stroke-width="1.5"></path><path d="M670.98 225.04L848.58 215.76" stroke="#132e65" stroke-width="1.5"></path><path d="M670.98 225.04L836.16 345.08" stroke="#132e65" stroke-width="1.5"></path><path d="M688.57 359.44L688.57 359.44" stroke="#132e65" stroke-width="1.5"></path><path d="M688.57 359.44L836.16 345.08" stroke="#132e65" stroke-width="1.5"></path><path d="M644.53 650.43L644.53 650.43" stroke="#132e65" stroke-width="1.5"></path><path d="M848.58 215.76L848.58 215.76" stroke="#132e65" stroke-width="1.5"></path><path d="M848.58 215.76L836.16 345.08" stroke="#132e65" stroke-width="1.5"></path><path d="M848.58 215.76L991.15 255.77" stroke="#132e65" stroke-width="1.5"></path><path d="M836.16 345.08L836.16 345.08" stroke="#132e65" stroke-width="1.5"></path><path d="M836.16 345.08L1012.17 359.56" stroke="#132e65" stroke-width="1.5"></path><path d="M836.16 345.08L991.15 255.77" stroke="#132e65" stroke-width="1.5"></path><path d="M824.09 534.52L824.09 534.52" stroke="#132e65" stroke-width="1.5"></path><path d="M824.09 534.52L949.9 498.07" stroke="#132e65" stroke-width="1.5"></path><path d="M824.09 534.52L859.61 661.86" stroke="#132e65" stroke-width="1.5"></path><path d="M824.09 534.52L836.16 345.08" stroke="#132e65" stroke-width="1.5"></path><path d="M824.09 534.52L644.53 650.43" stroke="#132e65" stroke-width="1.5"></path><path d="M859.61 661.86L859.61 661.86" stroke="#132e65" stroke-width="1.5"></path><path d="M859.61 661.86L973.58 703.64" stroke="#132e65" stroke-width="1.5"></path><path d="M859.61 661.86L949.9 498.07" stroke="#132e65" stroke-width="1.5"></path><path d="M1002.8 -62.94L1002.8 -62.94" stroke="#132e65" stroke-width="1.5"></path><path d="M1002.8 -62.94L990.53 37.73" stroke="#132e65" stroke-width="1.5"></path><path d="M1002.8 -62.94L1105.49 55.1" stroke="#132e65" stroke-width="1.5"></path><path d="M1002.8 -62.94L1310.4 -110.09" stroke="#132e65" stroke-width="1.5"></path><path d="M1002.8 -62.94L848.58 215.76" stroke="#132e65" stroke-width="1.5"></path><path d="M1002.8 -62.94L991.15 255.77" stroke="#132e65" stroke-width="1.5"></path><path d="M990.53 37.73L990.53 37.73" stroke="#132e65" stroke-width="1.5"></path><path d="M990.53 37.73L1105.49 55.1" stroke="#132e65" stroke-width="1.5"></path><path d="M991.15 255.77L991.15 255.77" stroke="#132e65" stroke-width="1.5"></path><path d="M991.15 255.77L1012.17 359.56" stroke="#132e65" stroke-width="1.5"></path><path d="M991.15 255.77L1111.73 246.96" stroke="#132e65" stroke-width="1.5"></path><path d="M1012.17 359.56L1012.17 359.56" stroke="#132e65" stroke-width="1.5"></path><path d="M1012.17 359.56L1149.46 368.59" stroke="#132e65" stroke-width="1.5"></path><path d="M1012.17 359.56L1111.73 246.96" stroke="#132e65" stroke-width="1.5"></path><path d="M1012.17 359.56L949.9 498.07" stroke="#132e65" stroke-width="1.5"></path><path d="M1012.17 359.56L1130.83 507.91" stroke="#132e65" stroke-width="1.5"></path><path d="M949.9 498.07L949.9 498.07" stroke="#132e65" stroke-width="1.5"></path><path d="M949.9 498.07L1130.83 507.91" stroke="#132e65" stroke-width="1.5"></path><path d="M973.58 703.64L973.58 703.64" stroke="#132e65" stroke-width="1.5"></path><path d="M973.58 703.64L1154.94 661.41" stroke="#132e65" stroke-width="1.5"></path><path d="M973.58 703.64L949.9 498.07" stroke="#132e65" stroke-width="1.5"></path><path d="M973.58 703.64L824.09 534.52" stroke="#132e65" stroke-width="1.5"></path><path d="M1105.49 55.1L1105.49 55.1" stroke="#132e65" stroke-width="1.5"></path><path d="M1105.49 55.1L1111.73 246.96" stroke="#132e65" stroke-width="1.5"></path><path d="M1105.49 55.1L1303.3 46.49" stroke="#132e65" stroke-width="1.5"></path><path d="M1105.49 55.1L991.15 255.77" stroke="#132e65" stroke-width="1.5"></path><path d="M1105.49 55.1L1288.88 238.93" stroke="#132e65" stroke-width="1.5"></path><path d="M1111.73 246.96L1111.73 246.96" stroke="#132e65" stroke-width="1.5"></path><path d="M1111.73 246.96L1149.46 368.59" stroke="#132e65" stroke-width="1.5"></path><path d="M1111.73 246.96L1288.88 238.93" stroke="#132e65" stroke-width="1.5"></path><path d="M1149.46 368.59L1149.46 368.59" stroke="#132e65" stroke-width="1.5"></path><path d="M1149.46 368.59L1275.29 369.86" stroke="#132e65" stroke-width="1.5"></path><path d="M1149.46 368.59L1130.83 507.91" stroke="#132e65" stroke-width="1.5"></path><path d="M1149.46 368.59L1288.88 238.93" stroke="#132e65" stroke-width="1.5"></path><path d="M1130.83 507.91L1130.83 507.91" stroke="#132e65" stroke-width="1.5"></path><path d="M1130.83 507.91L1154.94 661.41" stroke="#132e65" stroke-width="1.5"></path><path d="M1130.83 507.91L1266.22 648.67" stroke="#132e65" stroke-width="1.5"></path><path d="M1130.83 507.91L1275.29 369.86" stroke="#132e65" stroke-width="1.5"></path><path d="M1154.94 661.41L1154.94 661.41" stroke="#132e65" stroke-width="1.5"></path><path d="M1154.94 661.41L1266.22 648.67" stroke="#132e65" stroke-width="1.5"></path><path d="M1154.94 661.41L949.9 498.07" stroke="#132e65" stroke-width="1.5"></path><path d="M1154.94 661.41L1149.46 368.59" stroke="#132e65" stroke-width="1.5"></path><path d="M1154.94 661.41L1449.85 656.41" stroke="#132e65" stroke-width="1.5"></path><path d="M1310.4 -110.09L1310.4 -110.09" stroke="#132e65" stroke-width="1.5"></path><path d="M1310.4 -110.09L1452.57 -111.74" stroke="#132e65" stroke-width="1.5"></path><path d="M1310.4 -110.09L1303.3 46.49" stroke="#132e65" stroke-width="1.5"></path><path d="M1310.4 -110.09L1414.72 64.5" stroke="#132e65" stroke-width="1.5"></path><path d="M1310.4 -110.09L1105.49 55.1" stroke="#132e65" stroke-width="1.5"></path><path d="M1310.4 -110.09L1588.51 -41.54" stroke="#132e65" stroke-width="1.5"></path><path d="M1303.3 46.49L1303.3 46.49" stroke="#132e65" stroke-width="1.5"></path><path d="M1303.3 46.49L1414.72 64.5" stroke="#132e65" stroke-width="1.5"></path><path d="M1288.88 238.93L1288.88 238.93" stroke="#132e65" stroke-width="1.5"></path><path d="M1288.88 238.93L1398.23 226.1" stroke="#132e65" stroke-width="1.5"></path><path d="M1275.29 369.86L1275.29 369.86" stroke="#132e65" stroke-width="1.5"></path><path d="M1275.29 369.86L1288.88 238.93" stroke="#132e65" stroke-width="1.5"></path><path d="M1275.29 369.86L1408.34 364.59" stroke="#132e65" stroke-width="1.5"></path><path d="M1275.29 369.86L1398.23 226.1" stroke="#132e65" stroke-width="1.5"></path><path d="M1275.29 369.86L1111.73 246.96" stroke="#132e65" stroke-width="1.5"></path><path d="M1266.22 648.67L1266.22 648.67" stroke="#132e65" stroke-width="1.5"></path><path d="M1266.22 648.67L1449.85 656.41" stroke="#132e65" stroke-width="1.5"></path><path d="M1452.57 -111.74L1452.57 -111.74" stroke="#132e65" stroke-width="1.5"></path><path d="M1452.57 -111.74L1588.51 -41.54" stroke="#132e65" stroke-width="1.5"></path><path d="M1452.57 -111.74L1414.72 64.5" stroke="#132e65" stroke-width="1.5"></path><path d="M1452.57 -111.74L1303.3 46.49" stroke="#132e65" stroke-width="1.5"></path><path d="M1452.57 -111.74L1551.33 83.35" stroke="#132e65" stroke-width="1.5"></path><path d="M1452.57 -111.74L1398.23 226.1" stroke="#132e65" stroke-width="1.5"></path><path d="M1414.72 64.5L1414.72 64.5" stroke="#132e65" stroke-width="1.5"></path><path d="M1414.72 64.5L1551.33 83.35" stroke="#132e65" stroke-width="1.5"></path><path d="M1414.72 64.5L1398.23 226.1" stroke="#132e65" stroke-width="1.5"></path><path d="M1414.72 64.5L1588.51 -41.54" stroke="#132e65" stroke-width="1.5"></path><path d="M1398.23 226.1L1398.23 226.1" stroke="#132e65" stroke-width="1.5"></path><path d="M1398.23 226.1L1408.34 364.59" stroke="#132e65" stroke-width="1.5"></path><path d="M1398.23 226.1L1543.34 234.22" stroke="#132e65" stroke-width="1.5"></path><path d="M1408.34 364.59L1408.34 364.59" stroke="#132e65" stroke-width="1.5"></path><path d="M1408.34 364.59L1564.39 376.71" stroke="#132e65" stroke-width="1.5"></path><path d="M1408.34 364.59L1288.88 238.93" stroke="#132e65" stroke-width="1.5"></path><path d="M1449.85 656.41L1449.85 656.41" stroke="#132e65" stroke-width="1.5"></path><path d="M1449.85 656.41L1577.65 694.51" stroke="#132e65" stroke-width="1.5"></path><path d="M1449.85 656.41L1586.15 555.37" stroke="#132e65" stroke-width="1.5"></path><path d="M1449.85 656.41L1408.34 364.59" stroke="#132e65" stroke-width="1.5"></path><path d="M1588.51 -41.54L1588.51 -41.54" stroke="#132e65" stroke-width="1.5"></path><path d="M1588.51 -41.54L1551.33 83.35" stroke="#132e65" stroke-width="1.5"></path><path d="M1588.51 -41.54L1543.34 234.22" stroke="#132e65" stroke-width="1.5"></path><path d="M1588.51 -41.54L1303.3 46.49" stroke="#132e65" stroke-width="1.5"></path><path d="M1551.33 83.35L1551.33 83.35" stroke="#132e65" stroke-width="1.5"></path><path d="M1551.33 83.35L1543.34 234.22" stroke="#132e65" stroke-width="1.5"></path><path d="M1543.34 234.22L1543.34 234.22" stroke="#132e65" stroke-width="1.5"></path><path d="M1543.34 234.22L1564.39 376.71" stroke="#132e65" stroke-width="1.5"></path><path d="M1543.34 234.22L1408.34 364.59" stroke="#132e65" stroke-width="1.5"></path><path d="M1564.39 376.71L1564.39 376.71" stroke="#132e65" stroke-width="1.5"></path><path d="M1564.39 376.71L1586.15 555.37" stroke="#132e65" stroke-width="1.5"></path><path d="M1564.39 376.71L1398.23 226.1" stroke="#132e65" stroke-width="1.5"></path><path d="M1586.15 555.37L1586.15 555.37" stroke="#132e65" stroke-width="1.5"></path><path d="M1586.15 555.37L1577.65 694.51" stroke="#132e65" stroke-width="1.5"></path><path d="M1586.15 555.37L1408.34 364.59" stroke="#132e65" stroke-width="1.5"></path><path d="M1586.15 555.37L1543.34 234.22" stroke="#132e65" stroke-width="1.5"></path><path d="M1586.15 555.37L1266.22 648.67" stroke="#132e65" stroke-width="1.5"></path><path d="M1577.65 694.51L1577.65 694.51" stroke="#132e65" stroke-width="1.5"></path><path d="M1577.65 694.51L1266.22 648.67" stroke="#132e65" stroke-width="1.5"></path><circle r="5" cx="-51.9" cy="370.28" fill="#132e65"></circle><circle r="5" cx="-49.48" cy="546.34" fill="#132e65"></circle><circle r="5" cx="-79.44" cy="661.11" fill="#132e65"></circle><circle r="5" cx="95.12" cy="343.89" fill="#132e65"></circle><circle r="5" cx="107.89" cy="551.92" fill="#132e65"></circle><circle r="5" cx="63.69" cy="652.74" fill="#132e65"></circle><circle r="5" cx="223.37" cy="357.9" fill="#132e65"></circle><circle r="5" cx="241.81" cy="538.59" fill="#132e65"></circle><circle r="5" cx="347.09" cy="410.33" fill="#132e65"></circle><circle r="5" cx="396.02" cy="531.49" fill="#132e65"></circle><circle r="5" cx="365.32" cy="699.61" fill="#132e65"></circle><circle r="5" cx="487.87" cy="388.29" fill="#132e65"></circle><circle r="5" cx="551.81" cy="499.63" fill="#132e65"></circle><circle r="5" cx="553.88" cy="674.93" fill="#132e65"></circle><circle r="5" cx="670.98" cy="225.04" fill="#132e65"></circle><circle r="5" cx="688.57" cy="359.44" fill="#132e65"></circle><circle r="5" cx="644.53" cy="650.43" fill="#132e65"></circle><circle r="5" cx="848.58" cy="215.76" fill="#132e65"></circle><circle r="5" cx="836.16" cy="345.08" fill="#132e65"></circle><circle r="5" cx="824.09" cy="534.52" fill="#132e65"></circle><circle r="5" cx="859.61" cy="661.86" fill="#132e65"></circle><circle r="5" cx="1002.8" cy="-62.94" fill="#132e65"></circle><circle r="5" cx="990.53" cy="37.73" fill="#132e65"></circle><circle r="5" cx="991.15" cy="255.77" fill="#132e65"></circle><circle r="5" cx="1012.17" cy="359.56" fill="#132e65"></circle><circle r="5" cx="949.9" cy="498.07" fill="#132e65"></circle><circle r="5" cx="973.58" cy="703.64" fill="#132e65"></circle><circle r="5" cx="1105.49" cy="55.1" fill="#132e65"></circle><circle r="5" cx="1111.73" cy="246.96" fill="#132e65"></circle><circle r="5" cx="1149.46" cy="368.59" fill="#132e65"></circle><circle r="5" cx="1130.83" cy="507.91" fill="#132e65"></circle><circle r="5" cx="1154.94" cy="661.41" fill="#132e65"></circle><circle r="5" cx="1310.4" cy="-110.09" fill="#132e65"></circle><circle r="5" cx="1303.3" cy="46.49" fill="#132e65"></circle><circle r="5" cx="1288.88" cy="238.93" fill="#132e65"></circle><circle r="5" cx="1275.29" cy="369.86" fill="#132e65"></circle><circle r="5" cx="1266.22" cy="648.67" fill="#132e65"></circle><circle r="5" cx="1452.57" cy="-111.74" fill="#132e65"></circle><circle r="5" cx="1414.72" cy="64.5" fill="#132e65"></circle><circle r="5" cx="1398.23" cy="226.1" fill="#132e65"></circle><circle r="5" cx="1408.34" cy="364.59" fill="#132e65"></circle><circle r="5" cx="1449.85" cy="656.41" fill="#132e65"></circle><circle r="5" cx="1588.51" cy="-41.54" fill="#132e65"></circle><circle r="5" cx="1551.33" cy="83.35" fill="#132e65"></circle><circle r="5" cx="1543.34" cy="234.22" fill="#132e65"></circle><circle r="5" cx="1564.39" cy="376.71" fill="#132e65"></circle><circle r="5" cx="1586.15" cy="555.37" fill="#132e65"></circle><circle r="5" cx="1577.65" cy="694.51" fill="#132e65"></circle><path d="M708.77 519.87L708.77 519.87" stroke="hsl(228.5, 77.2%, 51.5%)" stroke-width="1.5"></path><path d="M708.77 519.87L817.09 489.43" stroke="hsl(228.5, 77.2%, 51.5%)" stroke-width="1.5"></path><path d="M708.77 519.87L799.88 639.33" stroke="hsl(228.5, 77.2%, 51.5%)" stroke-width="1.5"></path><path d="M708.77 519.87L653.27 379.76" stroke="hsl(228.5, 77.2%, 51.5%)" stroke-width="1.5"></path><path d="M1263.8 79.67L1263.8 79.67" stroke="hsl(228.5, 77.2%, 51.5%)" stroke-width="1.5"></path><path d="M1263.8 79.67L1247.83 -61.78" stroke="hsl(228.5, 77.2%, 51.5%)" stroke-width="1.5"></path><path d="M1256.22 516.4L1256.22 516.4" stroke="hsl(228.5, 77.2%, 51.5%)" stroke-width="1.5"></path><path d="M1256.22 516.4L1130.2 520.32" stroke="hsl(228.5, 77.2%, 51.5%)" stroke-width="1.5"></path><path d="M1256.22 516.4L1290.21 361.15" stroke="hsl(228.5, 77.2%, 51.5%)" stroke-width="1.5"></path><path d="M1256.22 516.4L1285.72 686.62" stroke="hsl(228.5, 77.2%, 51.5%)" stroke-width="1.5"></path><path d="M1256.22 516.4L1441.24 549.66" stroke="hsl(228.5, 77.2%, 51.5%)" stroke-width="1.5"></path><path d="M1256.22 516.4L1396.74 652.09" stroke="hsl(228.5, 77.2%, 51.5%)" stroke-width="1.5"></path><path d="M1256.22 516.4L1419.8 387.73" stroke="hsl(228.5, 77.2%, 51.5%)" stroke-width="1.5"></path><path d="M1285.72 686.62L1285.72 686.62" stroke="hsl(228.5, 77.2%, 51.5%)" stroke-width="1.5"></path><path d="M1285.72 686.62L1396.74 652.09" stroke="hsl(228.5, 77.2%, 51.5%)" stroke-width="1.5"></path><path d="M1414.67 38.53L1414.67 38.53" stroke="hsl(228.5, 77.2%, 51.5%)" stroke-width="1.5"></path><path d="M1414.67 38.53L1421.16 -98.96" stroke="hsl(228.5, 77.2%, 51.5%)" stroke-width="1.5"></path><path d="M1414.67 38.53L1263.8 79.67" stroke="hsl(228.5, 77.2%, 51.5%)" stroke-width="1.5"></path><path d="M1414.67 38.53L1562.78 90.93" stroke="hsl(228.5, 77.2%, 51.5%)" stroke-width="1.5"></path><path d="M1414.67 38.53L1420.07 221.92" stroke="hsl(228.5, 77.2%, 51.5%)" stroke-width="1.5"></path><path d="M1414.67 38.53L1247.83 -61.78" stroke="hsl(228.5, 77.2%, 51.5%)" stroke-width="1.5"></path><path d="M1414.67 38.53L1595.61 -84.17" stroke="hsl(228.5, 77.2%, 51.5%)" stroke-width="1.5"></path><path d="M1441.24 549.66L1441.24 549.66" stroke="hsl(228.5, 77.2%, 51.5%)" stroke-width="1.5"></path><path d="M1441.24 549.66L1396.74 652.09" stroke="hsl(228.5, 77.2%, 51.5%)" stroke-width="1.5"></path><path d="M1441.24 549.66L1572.97 501.86" stroke="hsl(228.5, 77.2%, 51.5%)" stroke-width="1.5"></path><path d="M1441.24 549.66L1419.8 387.73" stroke="hsl(228.5, 77.2%, 51.5%)" stroke-width="1.5"></path><path d="M1572.97 501.86L1572.97 501.86" stroke="hsl(228.5, 77.2%, 51.5%)" stroke-width="1.5"></path><path d="M1572.97 501.86L1591.78 386.77" stroke="hsl(228.5, 77.2%, 51.5%)" stroke-width="1.5"></path><path d="M-52.93 488.67L-52.93 488.67" stroke="hsl(228.5, 77.2%, 51.5%)" stroke-width="1.5"></path><path d="M-52.93 488.67L56.63 518.47" stroke="hsl(228.5, 77.2%, 51.5%)" stroke-width="1.5"></path><path d="M-52.93 488.67L-108.52 656.15" stroke="hsl(228.5, 77.2%, 51.5%)" stroke-width="1.5"></path><path d="M-108.52 656.15L-108.52 656.15" stroke="hsl(228.5, 77.2%, 51.5%)" stroke-width="1.5"></path><path d="M-108.52 656.15L41.09 680.84" stroke="hsl(228.5, 77.2%, 51.5%)" stroke-width="1.5"></path><path d="M56.63 518.47L56.63 518.47" stroke="hsl(228.5, 77.2%, 51.5%)" stroke-width="1.5"></path><path d="M56.63 518.47L41.09 680.84" stroke="hsl(228.5, 77.2%, 51.5%)" stroke-width="1.5"></path><path d="M41.09 680.84L41.09 680.84" stroke="hsl(228.5, 77.2%, 51.5%)" stroke-width="1.5"></path><path d="M41.09 680.84L230.13 700.46" stroke="hsl(228.5, 77.2%, 51.5%)" stroke-width="1.5"></path><path d="M41.09 680.84L-52.93 488.67" stroke="hsl(228.5, 77.2%, 51.5%)" stroke-width="1.5"></path><path d="M225.16 552.38L225.16 552.38" stroke="hsl(228.5, 77.2%, 51.5%)" stroke-width="1.5"></path><path d="M225.16 552.38L358.17 546.18" stroke="hsl(228.5, 77.2%, 51.5%)" stroke-width="1.5"></path><path d="M225.16 552.38L230.13 700.46" stroke="hsl(228.5, 77.2%, 51.5%)" stroke-width="1.5"></path><path d="M225.16 552.38L352.22 663.37" stroke="hsl(228.5, 77.2%, 51.5%)" stroke-width="1.5"></path><path d="M225.16 552.38L56.63 518.47" stroke="hsl(228.5, 77.2%, 51.5%)" stroke-width="1.5"></path><path d="M225.16 552.38L41.09 680.84" stroke="hsl(228.5, 77.2%, 51.5%)" stroke-width="1.5"></path><path d="M225.16 552.38L494.11 532.51" stroke="hsl(228.5, 77.2%, 51.5%)" stroke-width="1.5"></path><path d="M230.13 700.46L230.13 700.46" stroke="hsl(228.5, 77.2%, 51.5%)" stroke-width="1.5"></path><path d="M230.13 700.46L352.22 663.37" stroke="hsl(228.5, 77.2%, 51.5%)" stroke-width="1.5"></path><path d="M358.17 546.18L358.17 546.18" stroke="hsl(228.5, 77.2%, 51.5%)" stroke-width="1.5"></path><path d="M358.17 546.18L352.22 663.37" stroke="hsl(228.5, 77.2%, 51.5%)" stroke-width="1.5"></path><path d="M358.17 546.18L494.11 532.51" stroke="hsl(228.5, 77.2%, 51.5%)" stroke-width="1.5"></path><path d="M352.22 663.37L352.22 663.37" stroke="hsl(228.5, 77.2%, 51.5%)" stroke-width="1.5"></path><path d="M494.11 532.51L494.11 532.51" stroke="hsl(228.5, 77.2%, 51.5%)" stroke-width="1.5"></path><path d="M494.11 532.51L529.7 709.17" stroke="hsl(228.5, 77.2%, 51.5%)" stroke-width="1.5"></path><path d="M529.7 709.17L529.7 709.17" stroke="hsl(228.5, 77.2%, 51.5%)" stroke-width="1.5"></path><path d="M529.7 709.17L655.16 667.47" stroke="hsl(228.5, 77.2%, 51.5%)" stroke-width="1.5"></path><path d="M653.27 379.76L653.27 379.76" stroke="hsl(228.5, 77.2%, 51.5%)" stroke-width="1.5"></path><path d="M653.27 379.76L827.98 406.96" stroke="hsl(228.5, 77.2%, 51.5%)" stroke-width="1.5"></path><path d="M653.27 379.76L817.09 489.43" stroke="hsl(228.5, 77.2%, 51.5%)" stroke-width="1.5"></path><path d="M653.27 379.76L494.11 532.51" stroke="hsl(228.5, 77.2%, 51.5%)" stroke-width="1.5"></path><path d="M653.27 379.76L655.16 667.47" stroke="hsl(228.5, 77.2%, 51.5%)" stroke-width="1.5"></path><path d="M653.27 379.76L799.88 639.33" stroke="hsl(228.5, 77.2%, 51.5%)" stroke-width="1.5"></path><path d="M655.16 667.47L655.16 667.47" stroke="hsl(228.5, 77.2%, 51.5%)" stroke-width="1.5"></path><path d="M655.16 667.47L799.88 639.33" stroke="hsl(228.5, 77.2%, 51.5%)" stroke-width="1.5"></path><path d="M655.16 667.47L708.77 519.87" stroke="hsl(228.5, 77.2%, 51.5%)" stroke-width="1.5"></path><path d="M655.16 667.47L494.11 532.51" stroke="hsl(228.5, 77.2%, 51.5%)" stroke-width="1.5"></path><path d="M655.16 667.47L817.09 489.43" stroke="hsl(228.5, 77.2%, 51.5%)" stroke-width="1.5"></path><path d="M827.98 406.96L827.98 406.96" stroke="hsl(228.5, 77.2%, 51.5%)" stroke-width="1.5"></path><path d="M827.98 406.96L817.09 489.43" stroke="hsl(228.5, 77.2%, 51.5%)" stroke-width="1.5"></path><path d="M827.98 406.96L972.49 348.38" stroke="hsl(228.5, 77.2%, 51.5%)" stroke-width="1.5"></path><path d="M827.98 406.96L708.77 519.87" stroke="hsl(228.5, 77.2%, 51.5%)" stroke-width="1.5"></path><path d="M817.09 489.43L817.09 489.43" stroke="hsl(228.5, 77.2%, 51.5%)" stroke-width="1.5"></path><path d="M817.09 489.43L799.88 639.33" stroke="hsl(228.5, 77.2%, 51.5%)" stroke-width="1.5"></path><path d="M817.09 489.43L985.34 516.92" stroke="hsl(228.5, 77.2%, 51.5%)" stroke-width="1.5"></path><path d="M799.88 639.33L799.88 639.33" stroke="hsl(228.5, 77.2%, 51.5%)" stroke-width="1.5"></path><path d="M799.88 639.33L960.67 682.25" stroke="hsl(228.5, 77.2%, 51.5%)" stroke-width="1.5"></path><path d="M799.88 639.33L985.34 516.92" stroke="hsl(228.5, 77.2%, 51.5%)" stroke-width="1.5"></path><path d="M972.49 348.38L972.49 348.38" stroke="hsl(228.5, 77.2%, 51.5%)" stroke-width="1.5"></path><path d="M972.49 348.38L1099.56 378.11" stroke="hsl(228.5, 77.2%, 51.5%)" stroke-width="1.5"></path><path d="M972.49 348.38L985.34 516.92" stroke="hsl(228.5, 77.2%, 51.5%)" stroke-width="1.5"></path><path d="M972.49 348.38L1114.86 235.16" stroke="hsl(228.5, 77.2%, 51.5%)" stroke-width="1.5"></path><path d="M972.49 348.38L817.09 489.43" stroke="hsl(228.5, 77.2%, 51.5%)" stroke-width="1.5"></path><path d="M985.34 516.92L985.34 516.92" stroke="hsl(228.5, 77.2%, 51.5%)" stroke-width="1.5"></path><path d="M985.34 516.92L1130.2 520.32" stroke="hsl(228.5, 77.2%, 51.5%)" stroke-width="1.5"></path><path d="M985.34 516.92L960.67 682.25" stroke="hsl(228.5, 77.2%, 51.5%)" stroke-width="1.5"></path><path d="M960.67 682.25L960.67 682.25" stroke="hsl(228.5, 77.2%, 51.5%)" stroke-width="1.5"></path><path d="M1114.86 235.16L1114.86 235.16" stroke="hsl(228.5, 77.2%, 51.5%)" stroke-width="1.5"></path><path d="M1114.86 235.16L1099.56 378.11" stroke="hsl(228.5, 77.2%, 51.5%)" stroke-width="1.5"></path><path d="M1114.86 235.16L1284.77 259.29" stroke="hsl(228.5, 77.2%, 51.5%)" stroke-width="1.5"></path><path d="M1114.86 235.16L1263.8 79.67" stroke="hsl(228.5, 77.2%, 51.5%)" stroke-width="1.5"></path><path d="M1114.86 235.16L1290.21 361.15" stroke="hsl(228.5, 77.2%, 51.5%)" stroke-width="1.5"></path><path d="M1114.86 235.16L1130.2 520.32" stroke="hsl(228.5, 77.2%, 51.5%)" stroke-width="1.5"></path><path d="M1099.56 378.11L1099.56 378.11" stroke="hsl(228.5, 77.2%, 51.5%)" stroke-width="1.5"></path><path d="M1099.56 378.11L1130.2 520.32" stroke="hsl(228.5, 77.2%, 51.5%)" stroke-width="1.5"></path><path d="M1130.2 520.32L1130.2 520.32" stroke="hsl(228.5, 77.2%, 51.5%)" stroke-width="1.5"></path><path d="M1157.46 703.53L1157.46 703.53" stroke="hsl(228.5, 77.2%, 51.5%)" stroke-width="1.5"></path><path d="M1157.46 703.53L1285.72 686.62" stroke="hsl(228.5, 77.2%, 51.5%)" stroke-width="1.5"></path><path d="M1157.46 703.53L1130.2 520.32" stroke="hsl(228.5, 77.2%, 51.5%)" stroke-width="1.5"></path><path d="M1157.46 703.53L960.67 682.25" stroke="hsl(228.5, 77.2%, 51.5%)" stroke-width="1.5"></path><path d="M1247.83 -61.78L1247.83 -61.78" stroke="hsl(228.5, 77.2%, 51.5%)" stroke-width="1.5"></path><path d="M1247.83 -61.78L1421.16 -98.96" stroke="hsl(228.5, 77.2%, 51.5%)" stroke-width="1.5"></path><path d="M1247.83 -61.78L1284.77 259.29" stroke="hsl(228.5, 77.2%, 51.5%)" stroke-width="1.5"></path><path d="M1247.83 -61.78L1114.86 235.16" stroke="hsl(228.5, 77.2%, 51.5%)" stroke-width="1.5"></path><path d="M1247.83 -61.78L1420.07 221.92" stroke="hsl(228.5, 77.2%, 51.5%)" stroke-width="1.5"></path><path d="M1284.77 259.29L1284.77 259.29" stroke="hsl(228.5, 77.2%, 51.5%)" stroke-width="1.5"></path><path d="M1284.77 259.29L1290.21 361.15" stroke="hsl(228.5, 77.2%, 51.5%)" stroke-width="1.5"></path><path d="M1284.77 259.29L1420.07 221.92" stroke="hsl(228.5, 77.2%, 51.5%)" stroke-width="1.5"></path><path d="M1290.21 361.15L1290.21 361.15" stroke="hsl(228.5, 77.2%, 51.5%)" stroke-width="1.5"></path><path d="M1290.21 361.15L1419.8 387.73" stroke="hsl(228.5, 77.2%, 51.5%)" stroke-width="1.5"></path><path d="M1290.21 361.15L1420.07 221.92" stroke="hsl(228.5, 77.2%, 51.5%)" stroke-width="1.5"></path><path d="M1290.21 361.15L1099.56 378.11" stroke="hsl(228.5, 77.2%, 51.5%)" stroke-width="1.5"></path><path d="M1421.16 -98.96L1421.16 -98.96" stroke="hsl(228.5, 77.2%, 51.5%)" stroke-width="1.5"></path><path d="M1421.16 -98.96L1595.61 -84.17" stroke="hsl(228.5, 77.2%, 51.5%)" stroke-width="1.5"></path><path d="M1420.07 221.92L1420.07 221.92" stroke="hsl(228.5, 77.2%, 51.5%)" stroke-width="1.5"></path><path d="M1420.07 221.92L1549.55 228.48" stroke="hsl(228.5, 77.2%, 51.5%)" stroke-width="1.5"></path><path d="M1420.07 221.92L1419.8 387.73" stroke="hsl(228.5, 77.2%, 51.5%)" stroke-width="1.5"></path><path d="M1420.07 221.92L1562.78 90.93" stroke="hsl(228.5, 77.2%, 51.5%)" stroke-width="1.5"></path><path d="M1419.8 387.73L1419.8 387.73" stroke="hsl(228.5, 77.2%, 51.5%)" stroke-width="1.5"></path><path d="M1396.74 652.09L1396.74 652.09" stroke="hsl(228.5, 77.2%, 51.5%)" stroke-width="1.5"></path><path d="M1396.74 652.09L1599.25 696.04" stroke="hsl(228.5, 77.2%, 51.5%)" stroke-width="1.5"></path><path d="M1396.74 652.09L1572.97 501.86" stroke="hsl(228.5, 77.2%, 51.5%)" stroke-width="1.5"></path><path d="M1595.61 -84.17L1595.61 -84.17" stroke="hsl(228.5, 77.2%, 51.5%)" stroke-width="1.5"></path><path d="M1595.61 -84.17L1562.78 90.93" stroke="hsl(228.5, 77.2%, 51.5%)" stroke-width="1.5"></path><path d="M1562.78 90.93L1562.78 90.93" stroke="hsl(228.5, 77.2%, 51.5%)" stroke-width="1.5"></path><path d="M1562.78 90.93L1549.55 228.48" stroke="hsl(228.5, 77.2%, 51.5%)" stroke-width="1.5"></path><path d="M1562.78 90.93L1421.16 -98.96" stroke="hsl(228.5, 77.2%, 51.5%)" stroke-width="1.5"></path><path d="M1549.55 228.48L1549.55 228.48" stroke="hsl(228.5, 77.2%, 51.5%)" stroke-width="1.5"></path><path d="M1549.55 228.48L1591.78 386.77" stroke="hsl(228.5, 77.2%, 51.5%)" stroke-width="1.5"></path><path d="M1549.55 228.48L1419.8 387.73" stroke="hsl(228.5, 77.2%, 51.5%)" stroke-width="1.5"></path><path d="M1549.55 228.48L1414.67 38.53" stroke="hsl(228.5, 77.2%, 51.5%)" stroke-width="1.5"></path><path d="M1591.78 386.77L1591.78 386.77" stroke="hsl(228.5, 77.2%, 51.5%)" stroke-width="1.5"></path><path d="M1591.78 386.77L1419.8 387.73" stroke="hsl(228.5, 77.2%, 51.5%)" stroke-width="1.5"></path><path d="M1591.78 386.77L1441.24 549.66" stroke="hsl(228.5, 77.2%, 51.5%)" stroke-width="1.5"></path><path d="M1591.78 386.77L1420.07 221.92" stroke="hsl(228.5, 77.2%, 51.5%)" stroke-width="1.5"></path><path d="M1599.25 696.04L1599.25 696.04" stroke="hsl(228.5, 77.2%, 51.5%)" stroke-width="1.5"></path><path d="M1599.25 696.04L1572.97 501.86" stroke="hsl(228.5, 77.2%, 51.5%)" stroke-width="1.5"></path><circle r="25" cx="708.77" cy="519.87" fill="url(#SvgjsRadialGradient1069)"></circle><circle r="25" cx="1263.8" cy="79.67" fill="url(#SvgjsRadialGradient1069)"></circle><circle r="25" cx="1256.22" cy="516.4" fill="url(#SvgjsRadialGradient1069)"></circle><circle r="25" cx="1285.72" cy="686.62" fill="url(#SvgjsRadialGradient1069)"></circle><circle r="25" cx="1414.67" cy="38.53" fill="url(#SvgjsRadialGradient1069)"></circle><circle r="25" cx="1441.24" cy="549.66" fill="url(#SvgjsRadialGradient1069)"></circle><circle r="25" cx="1572.97" cy="501.86" fill="url(#SvgjsRadialGradient1069)"></circle><circle r="5" cx="-52.93" cy="488.67" fill="#8b9ad9"></circle><circle r="5" cx="-108.52" cy="656.15" fill="#8b9ad9"></circle><circle r="5" cx="56.63" cy="518.47" fill="#8b9ad9"></circle><circle r="5" cx="41.09" cy="680.84" fill="#8b9ad9"></circle><circle r="5" cx="225.16" cy="552.38" fill="#8b9ad9"></circle><circle r="5" cx="230.13" cy="700.46" fill="#8b9ad9"></circle><circle r="5" cx="358.17" cy="546.18" fill="#8b9ad9"></circle><circle r="5" cx="352.22" cy="663.37" fill="#8b9ad9"></circle><circle r="5" cx="494.11" cy="532.51" fill="#8b9ad9"></circle><circle r="5" cx="529.7" cy="709.17" fill="#8b9ad9"></circle><circle r="5" cx="653.27" cy="379.76" fill="#8b9ad9"></circle><circle r="5" cx="655.16" cy="667.47" fill="#8b9ad9"></circle><circle r="5" cx="827.98" cy="406.96" fill="#8b9ad9"></circle><circle r="5" cx="817.09" cy="489.43" fill="#8b9ad9"></circle><circle r="5" cx="799.88" cy="639.33" fill="#8b9ad9"></circle><circle r="5" cx="972.49" cy="348.38" fill="#8b9ad9"></circle><circle r="5" cx="985.34" cy="516.92" fill="#8b9ad9"></circle><circle r="5" cx="960.67" cy="682.25" fill="#8b9ad9"></circle><circle r="5" cx="1114.86" cy="235.16" fill="#8b9ad9"></circle><circle r="5" cx="1099.56" cy="378.11" fill="#8b9ad9"></circle><circle r="5" cx="1130.2" cy="520.32" fill="#8b9ad9"></circle><circle r="5" cx="1157.46" cy="703.53" fill="#8b9ad9"></circle><circle r="5" cx="1247.83" cy="-61.78" fill="#8b9ad9"></circle><circle r="5" cx="1284.77" cy="259.29" fill="#8b9ad9"></circle><circle r="5" cx="1290.21" cy="361.15" fill="#8b9ad9"></circle><circle r="5" cx="1421.16" cy="-98.96" fill="#8b9ad9"></circle><circle r="5" cx="1420.07" cy="221.92" fill="#8b9ad9"></circle><circle r="5" cx="1419.8" cy="387.73" fill="#8b9ad9"></circle><circle r="5" cx="1396.74" cy="652.09" fill="#8b9ad9"></circle><circle r="5" cx="1595.61" cy="-84.17" fill="#8b9ad9"></circle><circle r="5" cx="1562.78" cy="90.93" fill="#8b9ad9"></circle><circle r="5" cx="1549.55" cy="228.48" fill="#8b9ad9"></circle><circle r="5" cx="1591.78" cy="386.77" fill="#8b9ad9"></circle><circle r="5" cx="1599.25" cy="696.04" fill="#8b9ad9"></circle></g><defs><mask id="SvgjsMask1068"><rect width="1440" height="560" fill="#ffffff"></rect></mask><radialGradient id="SvgjsRadialGradient1069"><stop stop-color="#ffffff" offset="0.1"></stop><stop stop-color="#1735b3" offset="0.2"></stop><stop stop-color="rgba(23, 53, 179, 0)" offset="1"></stop></radialGradient></defs></svg>